<?xml version="1.0" standalone="no"?><!DOCTYPE svg PUBLIC "-//W3C//DTD SVG 1.1//EN" "http://www.w3.org/Graphics/SVG/1.1/DTD/svg11.dtd"><svg t="1729219008946" class="icon" viewBox="0 0 1024 1024" version="1.1" xmlns="http://www.w3.org/2000/svg" p-id="19624" xmlns:xlink="http://www.w3.org/1999/xlink" width="200" height="200"><path d="M675.555556 723.441778V597.333333H348.444444v126.108445L512 867.555556z" fill="#E6AF78" p-id="19625"></path><path d="M919.409778 784.682667l-219.989334-50.773334a35.697778 35.697778 0 0 1-9.244444-3.640889L512 832.199111 340.764444 725.333333a35.640889 35.640889 0 0 1-16.170666 8.576l-219.989334 50.773334C72.476444 792.092444 49.777778 820.195556 49.777778 852.565333v136.561778C49.777778 1008.384 65.706667 1024 85.333333 1024h853.333334c19.626667 0 35.555556-15.616 35.555555-34.872889v-136.561778c0-32.369778-22.698667-60.472889-54.812444-67.882666z" fill="#EFF2FA" p-id="19626"></path><path d="M348.444444 597.333333v125.809778c206.037333 69.575111 327.111111-104.561778 327.111112-104.561778V597.333333H348.444444z" fill="#D29B6E" p-id="19627"></path><path d="M277.333333 199.111111l15.729778 331.093333c1.464889 30.919111 17.322667 59.605333 43.207111 78.179556l74.638222 53.560889A111.587556 111.587556 0 0 0 475.904 682.666667h72.206222a111.573333 111.573333 0 0 0 64.981334-20.721778l74.638222-53.560889c25.884444-18.574222 41.742222-47.260444 43.207111-78.193778L746.666667 199.111111H277.333333z" fill="#F0C087" p-id="19628"></path><path d="M456.576 268.188444c71.708444 0 179.242667-17.265778 204.757333-69.077333H277.333333l15.616 331.093333c1.464889 30.919111 17.208889 59.591111 42.908445 78.179556l74.112 53.560889A110.279111 110.279111 0 0 0 474.510222 682.666667h35.84c-35.84 0-107.548444-69.077333-107.548444-155.434667V320c0-17.265778 17.92-51.811556 53.774222-51.811556z" fill="#E6AF78" p-id="19629"></path><path d="M181.006222 903.424l-114.944-106.296889A74.282667 74.282667 0 0 0 50.773333 842.396444v143.018667c0 20.167111 15.886222 36.522667 35.484445 36.522667h124.174222v-50.588445a92.529778 92.529778 0 0 0-29.425778-67.925333zM843.008 903.424l114.944-106.296889a74.282667 74.282667 0 0 1 15.274667 45.269333v143.018667c0 20.167111-15.886222 36.522667-35.470223 36.522667h-124.174222v-50.588445c0-25.912889 10.695111-50.616889 29.425778-67.925333z" fill="#E4EAF6" p-id="19630"></path><path d="M561.777778 1024h-85.333334l10.666667-156.444444h64z" fill="#5B5D6E" p-id="19631"></path><path d="M561.777778 824.888889h-85.333334v35.697778c0 11.704889 8.533333 21.191111 19.086223 21.191111h47.160889C553.244444 881.777778 561.777778 872.291556 561.777778 860.586667V824.888889z" fill="#515262" p-id="19632"></path><path d="M342.513778 687.317333L504.888889 834.844444s-45.468444 23.182222-101.589333 69.888a22.684444 22.684444 0 0 1-35.299556-8.049777l-76.288-169.443556 24.135111-36.551111a17.664 17.664 0 0 1 26.666667-3.370667zM667.278222 687.317333L504.888889 834.844444s45.482667 23.182222 101.603555 69.888a22.684444 22.684444 0 0 0 35.285334-8.049777l76.302222-169.443556-24.135111-36.551111a17.664 17.664 0 0 0-26.666667-3.370667z" fill="#E4EAF6" p-id="19633"></path><path d="M618.666667 82.019556l16.184889 116.337777c73.856 15.047111 84.494222 132.977778 86.030222 166.670223 0.284444 6.115556 2.190222 12.017778 5.447111 17.152L754.517333 426.666667s-9.642667-73.528889 34.517334-122.936889c0 0 15.160889-291.953778-170.368-221.710222z" fill="#785550" p-id="19634"></path><path d="M774.030222 415.530667l-19.370666 80.284444c-2.289778 9.514667-10.538667 16.184889-20.010667 16.184889-10.396444 0-19.171556-8.021333-20.465778-18.716444l-9.898667-82.119112c-2.659556-21.973333 13.880889-41.386667 35.256889-41.386666h0.014223c23.125333 0 40.078222 22.513778 34.474666 45.752889z" fill="#F0C087" p-id="19635"></path><path d="M292.636444 45.980444l26.353778 17.948445c-119.182222 87.765333-96.896 238.307556-96.896 238.307555 35.640889 35.555556 35.640889 124.430222 35.640889 124.430223l35.640889-35.555556s-13.752889-102.684444 53.447111-142.193778c62.378667-36.664889 116.949333-17.777778 172.629333-17.777777 149.248 0 191.004444-56.106667 183.765334-124.444445C699.477333 71.367111 645.290667-2.275556 507.207111 0.071111c-55.722667 0.938667-160.369778 17.777778-214.570667 45.923556z" fill="#694B4B" p-id="19636"></path><path d="M283.335111 219.761778S264.064 146.801778 320.753778 71.111111c-121.315556 86.030222-98.631111 233.585778-98.631111 233.585778 36.266667 34.844444 36.266667 121.969778 36.266666 121.969778l36.280889-34.844445s-13.994667-100.664889 54.428445-139.392c63.473778-35.939556 119.04-17.422222 175.715555-17.422222 24.704 0 46.222222-1.592889 65.408-4.309333-116.992 3.754667-185.955556-81.351111-306.887111-10.951111z" fill="#5A4146" p-id="19637"></path><path d="M249.969778 415.530667l19.370666 80.284444c2.289778 9.514667 10.538667 16.184889 20.010667 16.184889 10.396444 0 19.171556-8.021333 20.465778-18.716444l9.898667-82.119112c2.659556-21.973333-13.880889-41.386667-35.256889-41.386666H284.444444c-23.125333 0-40.078222 22.513778-34.474666 45.752889z" fill="#E6AF78" p-id="19638"></path><path d="M743.509333 981.333333h-121.685333c-9.6 0-17.379556 9.557333-17.379556 21.333334V1024h156.444445v-21.333333c0-11.776-7.779556-21.333333-17.379556-21.333334z" fill="#E4EAF6" p-id="19639"></path></svg>